<?xml version="1.0" encoding="utf-8"?>
<!-- Generator: Adobe Illustrator 26.0.1, SVG Export Plug-In . SVG Version: 6.00 Build 0)  -->
<svg version="1.1" id="Layer_1" xmlns="http://www.w3.org/2000/svg" xmlns:xlink="http://www.w3.org/1999/xlink" x="0px" y="0px"
	 viewBox="0 0 236 191.9" style="enable-background:new 0 0 236 191.9;" xml:space="preserve">
<style type="text/css">
	.st0{display:none;}
	.st1{display:inline;}
	.st2{clip-path:url(#SVGID_00000056410278040883996830000017733629729575266201_);}
	.st3{fill:none;}
</style>
<polygon points="141.7,107.9 121.7,152.1 145.2,188.8 209.7,188.9 213.7,170.2 155.2,169.9 142,151.2 158,115.8 "/>
<path d="M223.6,32.2c-18.5-11.3-34.2-17.6-34.2-17.6s-4.3-4-8.3-8c-4.1-4-6.7-5.2-18.9-6.5c-12.2-1.2-21.8,8.9-23,10.3
	s-6.5,9.6-6.4,12.9s-25.6,21.5-25.6,21.5l-21.5,0.1c-5.5,0.1-9.2,1.3-9.2,1.3c-13.1,4-24.4,12.3-24.4,12.3
	C19.4,82.6,1.6,117.4,1.6,117.4s-2.8,2.8-1.1,21.6c1.7,18.8,20.9,26.3,20.9,26.3c-10.9,18.2,10.1,25.8,10.1,25.8l94.2,0.8v-19
	l-24.7,0.3c0,0,4.7-7.2,5.9-9.6c9-17.5,7.2-27.3,7.2-32.5s0.5-17.7-11.1-28S79.2,94,79.2,94c-22,2.1-33,10-33,10l8.7,15.5l14.1-4.6
	c16.6-4.7,21.1,1.7,21.1,1.7s8.3,5.6,4.9,25.1c-3.2,19.5-19.6,31.2-19.6,31.2l-38.9,0.5l13.2-18.8c0,0-18.2-5.8-21.2-7
	s-8.5-3.7-9.6-12.1c-1-8.4,0.4-11.2,0.6-11.8c4.5-13.5,22.1-33.3,40.3-47.9C78,61.3,92.5,62.9,92.5,62.9l21-0.1
	c0,0,21.2-16.7,22.7-17.9c3.2-2.5,9.1,15.9,29.5,14.3c20.4-1.7,25.7-23.4,25.7-23.4l26.1,13.6c-4.9,19.9-34.8,26.7-34.8,26.7
	c0.7,24.6-3.4,36-3.4,36c-7.1,25.4-19.9,35.6-19.9,35.6l13.1,13.6c15.8-16.1,18.3-27.5,20.5-31.3c2.2-3.8,7.5-25.4,7.8-32.9
	s2.1-8.4,2.1-8.4s0,0,4.9-2.3c4.9-2.3,19.1-14.2,23.4-21.7C235.6,57.4,242.1,43.5,223.6,32.2z M161.9,40.7c-6.2,0-11.3-5-11.3-11.3
	c0-6.2,5-11.3,11.3-11.3c6.2,0,11.3,5,11.3,11.3C173.2,35.6,168.1,40.7,161.9,40.7z"/>
</svg>
